<?xml version="1.0" encoding="utf-8"?>
<!-- Generator: Adobe Illustrator 28.3.0, SVG Export Plug-In . SVG Version: 6.00 Build 0)  -->
<svg version="1.1" id="Warstwa_1" xmlns="http://www.w3.org/2000/svg" xmlns:xlink="http://www.w3.org/1999/xlink" x="0px" y="0px"
	 viewBox="0 0 20 22" style="enable-background:new 0 0 20 22;" xml:space="preserve">
<style type="text/css">
	.st0{fill:#FFFFFF;}
</style>
<path class="st0" d="M10,1.2c-5.4,0-9.9,4.4-9.9,9.9c0,5.4,4.4,9.9,9.9,9.9c5.4,0,9.9-4.4,9.9-9.9C19.9,5.6,15.4,1.2,10,1.2z
	 M13.5,12.8c0.3-0.5,0.5-1.2,0.5-1.8c0-0.7-0.2-1.3-0.5-1.8l2.7-2.6c0.9,1.3,1.4,2.8,1.4,4.5c0,1.7-0.5,3.2-1.4,4.5L13.5,12.8z
	 M7.9,11C7.9,9.9,8.9,9,10,9c1.1,0,2.1,0.9,2.1,2.1s-0.9,2.1-2.1,2.1C8.9,13.1,7.9,12.2,7.9,11z M14.6,5l-2.7,2.6
	c-0.6-0.3-1.2-0.5-1.9-0.5c-0.7,0-1.3,0.2-1.9,0.5L5.4,5C6.7,4,8.3,3.4,10,3.4C11.7,3.4,13.3,4,14.6,5z M3.8,6.6l2.7,2.6
	C6.2,9.8,6.1,10.4,6.1,11c0,0.7,0.2,1.3,0.5,1.8l-2.7,2.6c-0.9-1.3-1.4-2.8-1.4-4.4C2.4,9.4,2.9,7.8,3.8,6.6z M5.4,17.1l2.7-2.6
	C8.7,14.8,9.3,15,10,15c0.7,0,1.3-0.2,1.9-0.5l2.7,2.6c-1.3,1-2.9,1.6-4.6,1.6C8.3,18.6,6.7,18,5.4,17.1z"/>
</svg>
