<?xml version="1.0" encoding="utf-8"?>
<!-- Generator: Adobe Illustrator 28.3.0, SVG Export Plug-In . SVG Version: 6.00 Build 0)  -->
<svg version="1.1" id="Layer_1" xmlns="http://www.w3.org/2000/svg" xmlns:xlink="http://www.w3.org/1999/xlink" x="0px" y="0px"
	 viewBox="0 0 20 22" style="enable-background:new 0 0 20 22;" xml:space="preserve">
<style type="text/css">
	.st0{fill:#FFFFFF;}
</style>
<path class="st0" d="M17.6,2.9h-4.7c-0.9,0-1.7,0.8-1.7,1.7v4.7c0,0.9,0.8,1.7,1.7,1.7h2.9v2.3c0,1.3-1.1,2.3-2.3,2.3h-0.3
	c-0.5,0-0.9,0.4-0.9,0.9v1.7c0,0.5,0.4,0.9,0.9,0.9h0.3c3.2,0,5.8-2.7,5.8-5.8V4.6C19.3,3.7,18.5,2.9,17.6,2.9z M7.1,2.9H2.4
	c-0.9,0-1.7,0.8-1.7,1.7v4.7c0,0.9,0.8,1.7,1.7,1.7h2.9v2.3c0,1.3-1.1,2.3-2.3,2.3H2.7c-0.5,0-0.9,0.4-0.9,0.9v1.7
	c0,0.5,0.4,0.9,0.9,0.9h0.3c3.2,0,5.8-2.7,5.8-5.8V4.6C8.8,3.7,8,2.9,7.1,2.9z"/>
</svg>
