<?xml version="1.0" encoding="utf-8"?>
<!-- Generator: Adobe Illustrator 28.3.0, SVG Export Plug-In . SVG Version: 6.00 Build 0)  -->
<svg version="1.1" id="Layer_1" xmlns="http://www.w3.org/2000/svg" xmlns:xlink="http://www.w3.org/1999/xlink" x="0px" y="0px"
	 viewBox="0 0 20 22" style="enable-background:new 0 0 20 22;" xml:space="preserve">
<style type="text/css">
	.st0{fill:#FFFFFF;}
</style>
<path class="st0" d="M0.1,11c0-5.4,4.4-9.9,9.9-9.9s9.9,4.4,9.9,9.9s-4.4,9.9-9.9,9.9S0.1,16.4,0.1,11z M5.9,12.2l2.9-2.9v7.2
	c0,0.6,0.4,0.9,0.9,0.9h0.6c0.6,0,0.9-0.4,0.9-0.9V9.2l2.9,2.9c0.4,0.4,1,0.4,1.3,0l0.4-0.4c0.4-0.4,0.4-1,0-1.3l-5.2-5.3
	c-0.4-0.4-1-0.4-1.3,0l-5.3,5.3c-0.4,0.4-0.4,1,0,1.3l0.4,0.4C4.8,12.5,5.4,12.5,5.9,12.2z"/>
</svg>
