<svg xmlns="http://www.w3.org/2000/svg" xmlns:xlink="http://www.w3.org/1999/xlink" width="36" height="36" viewBox="0 0 36 36">
  <defs>
    <clipPath id="clip-path">
      <rect id="Rectangle_9686" data-name="Rectangle 9686" width="36" height="36" transform="translate(163 469)" fill="none"/>
    </clipPath>
  </defs>
  <g id="info" transform="translate(-163 -469)" clip-path="url(#clip-path)">
    <g id="Group_12279" data-name="Group 12279">
      <path id="Path_124518" data-name="Path 124518" d="M-130,3076.728a1,1,0,0,1-1-1v-9.6a1,1,0,0,1,1-1,1,1,0,0,1,1,1v9.6A1,1,0,0,1-130,3076.728Z" transform="translate(51 3559.293) rotate(180)" fill="#fd925c"/>
      <path id="Path_124519" data-name="Path 124519" d="M-130,3067.167a1,1,0,0,1-1-1v-.04a1,1,0,0,1,1-1,1,1,0,0,1,1,1v.04A1,1,0,0,1-130,3067.167Z" transform="translate(51 3546.293) rotate(180)" fill="#fd925c"/>
      <path id="Ellipse_180" data-name="Ellipse 180" d="M15,2A13,13,0,0,0,5.808,24.192,13,13,0,0,0,24.192,5.808,12.915,12.915,0,0,0,15,2m0-2A15,15,0,1,1,0,15,15,15,0,0,1,15,0Z" transform="translate(166 472)" fill="#fd925c"/>
    </g>
  </g>
</svg>
