<svg xmlns="http://www.w3.org/2000/svg" xmlns:xlink="http://www.w3.org/1999/xlink" width="36" height="36" viewBox="0 0 36 36">
  <defs>
    <clipPath id="clip-path">
      <rect id="Rectangle_9652" data-name="Rectangle 9652" width="36" height="36" transform="translate(163 384)" fill="none"/>
    </clipPath>
  </defs>
  <g id="success" transform="translate(-163 -384)" clip-path="url(#clip-path)">
    <g id="Group_12273" data-name="Group 12273">
      <path id="Ellipse_180" data-name="Ellipse 180" d="M15,2A13,13,0,0,0,5.808,24.192,13,13,0,0,0,24.192,5.808,12.915,12.915,0,0,0,15,2m0-2A15,15,0,1,1,0,15,15,15,0,0,1,15,0Z" transform="translate(166 387)" fill="#fff"/>
      <path id="Path_1" data-name="Path 1" d="M183.417,400.893a1,1,0,0,1-1-1v-4.766a1,1,0,0,1,2,0v4.766A1,1,0,0,1,183.417,400.893Z" transform="translate(-232.712 252.823) rotate(-45)" fill="#fff"/>
      <path id="Path_2" data-name="Path 2" d="M0,10.753a1,1,0,0,1-1-1V0A1,1,0,0,1,0-1,1,1,0,0,1,1,0V9.753A1,1,0,0,1,0,10.753Z" transform="translate(179.75 405.895) rotate(-143)" fill="#fff"/>
    </g>
  </g>
</svg>
