<svg xmlns="http://www.w3.org/2000/svg" xmlns:xlink="http://www.w3.org/1999/xlink" width="36" height="36" viewBox="0 0 36 36">
  <defs>
    <clipPath id="clip-path">
      <rect id="Rectangle_9662" data-name="Rectangle 9662" width="36" height="36" transform="translate(163 297)" fill="none"/>
    </clipPath>
  </defs>
  <g id="warning" transform="translate(-163 -297)" clip-path="url(#clip-path)">
    <g id="Group_12275" data-name="Group 12275" transform="translate(1 0.889)">
      <path id="Path_124518" data-name="Path 124518" d="M-130,3076.728a1,1,0,0,1-1-1v-9.6a1,1,0,0,1,1-1,1,1,0,0,1,1,1v9.6A1,1,0,0,1-130,3076.728Z" transform="translate(310 -2758)" fill="#fff"/>
      <path id="Path_124519" data-name="Path 124519" d="M-130,3067.167a1,1,0,0,1-1-1v-.04a1,1,0,0,1,1-1,1,1,0,0,1,1,1v.04A1,1,0,0,1-130,3067.167Z" transform="translate(310 -2745)" fill="#fff"/>
      <path id="Polygon_1" data-name="Polygon 1" d="M19,5.476a1.965,1.965,0,0,0-1.69.93L5.578,24.93A2,2,0,0,0,7.268,28H30.732a2,2,0,0,0,1.69-3.07L20.69,6.406A1.965,1.965,0,0,0,19,5.476m0-2a3.968,3.968,0,0,1,3.379,1.86L34.111,23.86A4,4,0,0,1,30.732,30H7.268a4,4,0,0,1-3.379-6.14L15.621,5.336A3.968,3.968,0,0,1,19,3.476Z" transform="translate(161 297)" fill="#fff"/>
    </g>
  </g>
</svg>
